<svg width="25" height="25" viewBox="0 0 25 25" fill="none" xmlns="http://www.w3.org/2000/svg">
<circle cx="12.4312" cy="12.6953" r="7.95898" fill="#D9D9D9"/>
<path d="M23.9489 14.5456C24.0675 13.8661 24.1267 13.1775 24.1259 12.4877C24.1404 9.02253 22.6179 5.72931 19.9686 3.49567C17.3194 1.26203 13.8163 0.317937 10.4035 0.917888C9.35443 0.313933 8.16474 -0.0026686 6.95429 1.69436e-05C4.46976 0.0152025 2.17963 1.34679 0.937392 3.4985C-0.304893 5.65021 -0.312901 8.29933 0.916249 10.4585C0.230409 14.2272 1.43183 18.093 4.13305 20.809C6.83427 23.525 10.6934 24.7474 14.4658 24.0821C15.5135 24.6856 16.7017 25.0022 17.9108 25C20.3941 24.984 22.6828 23.653 23.9248 21.5026C25.1668 19.3522 25.1759 16.7046 23.9489 14.5456ZM12.4799 20.0238C12.4806 20.0238 12.4812 20.0238 12.4819 20.0238H12.4778C12.4785 20.0239 12.4792 20.0238 12.4799 20.0238C8.32841 20.0232 6.43158 17.908 6.43158 16.3566C6.431 15.9864 6.58295 15.6324 6.8516 15.3778C7.12025 15.1231 7.48192 14.9903 7.85155 15.0107C9.62963 15.0107 9.16454 17.6778 12.4819 17.6778C14.1777 17.6778 15.1737 16.6571 15.1737 15.6981C15.1737 15.1219 14.8444 14.4633 13.7249 14.1999L10.0206 13.2656C7.04486 12.5083 6.52626 10.8537 6.52626 9.31847C6.52626 6.13273 9.44032 4.98029 12.2144 4.98029C14.7704 4.98029 17.8079 6.39206 17.8079 8.30182C17.8079 9.12502 17.1206 9.5654 16.3221 9.5654C14.8034 9.5654 15.0585 7.43337 12.0045 7.43337C10.4858 7.43337 9.68729 8.14543 9.68729 9.14142C9.68729 10.1375 10.8685 10.475 11.9058 10.7013L14.6387 11.3187C17.6351 11.9937 18.4336 13.7512 18.4336 15.4346C18.4335 18.0231 16.4298 20.0232 12.4799 20.0238Z" fill="#0079DA"/>
</svg>
