<svg width="45" height="45" viewBox="0 0 45 45" fill="none" xmlns="http://www.w3.org/2000/svg">
<rect x="0.5" y="0.5" width="44" height="44" rx="22" fill="#353945"/>
<g clip-path="url(#clip0_14_999)">
<path d="M22.5 35C29.4036 35 35 29.4036 35 22.5C35 15.5964 29.4036 10 22.5 10C15.5964 10 10 15.5964 10 22.5C10 29.4036 15.5964 35 22.5 35Z" fill="#039BE5"/>
<path d="M15.7198 22.2292L27.7719 17.5823C28.3313 17.3802 28.8198 17.7188 28.6386 18.5646L28.6396 18.5635L26.5875 28.2313C26.4354 28.9167 26.0282 29.0833 25.4584 28.7604L22.3334 26.4573L20.8261 27.9094C20.6594 28.076 20.5188 28.2167 20.1959 28.2167L20.4177 25.0365L26.2094 19.8042C26.4615 19.5823 26.1532 19.4573 25.8209 19.6781L18.6636 24.1844L15.5782 23.2219C14.9084 23.0094 14.8938 22.5521 15.7198 22.2292Z" fill="white"/>
</g>
<rect x="0.5" y="0.5" width="44" height="44" rx="22" stroke="#353945"/>
<defs>
<clipPath id="clip0_14_999">
<rect width="25" height="25" fill="white" transform="translate(10 10)"/>
</clipPath>
</defs>
</svg>
